<?xml version="1.0" encoding="UTF-8" standalone="no"?>
<!-- Created with Inkscape (http://www.inkscape.org/) -->

<svg
   xmlns:dc="http://purl.org/dc/elements/1.1/"
   xmlns:cc="http://creativecommons.org/ns#"
   xmlns:rdf="http://www.w3.org/1999/02/22-rdf-syntax-ns#"
   xmlns:svg="http://www.w3.org/2000/svg"
   xmlns="http://www.w3.org/2000/svg"
   xmlns:sodipodi="http://sodipodi.sourceforge.net/DTD/sodipodi-0.dtd"
   xmlns:inkscape="http://www.inkscape.org/namespaces/inkscape"
   width="210mm"
   height="297mm"
   viewBox="0 0 744.09448819 1052.3622047"
   id="svg5526"
   version="1.1"
   inkscape:version="0.91 r13725"
   sodipodi:docname="silverware-logo.svg"
   inkscape:export-filename="/home/mvecera/sw-logo.png"
   inkscape:export-xdpi="54.730526"
   inkscape:export-ydpi="54.730526">
  <defs
     id="defs5528" />
  <sodipodi:namedview
     id="base"
     pagecolor="#ffffff"
     bordercolor="#666666"
     borderopacity="1.0"
     inkscape:pageopacity="0.0"
     inkscape:pageshadow="2"
     inkscape:zoom="2.8"
     inkscape:cx="158.92387"
     inkscape:cy="521.20069"
     inkscape:document-units="px"
     inkscape:current-layer="layer1"
     showgrid="false"
     inkscape:window-width="1600"
     inkscape:window-height="853"
     inkscape:window-x="0"
     inkscape:window-y="0"
     inkscape:window-maximized="1" />
  <metadata
     id="metadata5531">
    <rdf:RDF>
      <cc:Work
         rdf:about="">
        <dc:format>image/svg+xml</dc:format>
        <dc:type
           rdf:resource="http://purl.org/dc/dcmitype/StillImage" />
        <dc:title></dc:title>
      </cc:Work>
    </rdf:RDF>
  </metadata>
  <g
     inkscape:label="Vrstva 1"
     inkscape:groupmode="layer"
     id="layer1">
    <g
       transform="translate(-1127.5518,702.46551)"
       id="g5488">
      <g
         transform="matrix(1.3016092,0,0,1.3016092,2072.5988,-800.22619)"
         id="g25781">
        <path
           inkscape:export-ydpi="90"
           inkscape:export-xdpi="90"
           sodipodi:nodetypes="sscccsssccs"
           inkscape:connector-curvature="0"
           id="path25765"
           d="m -571.5026,439.04477 c -26.5856,0.2211 -59.9861,47.61266 -59.0526,56.48038 0.9482,9.00848 18.0176,7.82282 18.0176,7.82282 l 42.3279,-9.42507 42.328,9.42507 c 0,0 17.0693,1.18566 18.0176,-7.82282 0.9334,-8.86772 -31.7957,-56.25928 -58.3813,-56.48038 -0.422,-0.004 -0.8426,0.008 -1.2612,0.0339 -0.1222,0.008 -0.2449,0.0212 -0.3674,0.0331 -0.1225,-0.0116 -0.2452,-0.0254 -0.3674,-0.0331 -0.4186,-0.0262 -0.8392,-0.0373 -1.2612,-0.0339 z"
           style="opacity:1;fill:#ffffff;fill-opacity:1;stroke:#313131;stroke-width:2.69311976;stroke-linecap:round;stroke-linejoin:round;stroke-miterlimit:4;stroke-dasharray:none;stroke-dashoffset:4;stroke-opacity:1" />
        <path
           inkscape:export-ydpi="90"
           inkscape:export-xdpi="90"
           style="color:#000000;font-style:normal;font-variant:normal;font-weight:normal;font-stretch:normal;font-size:medium;line-height:normal;font-family:sans-serif;text-indent:0;text-align:start;text-decoration:none;text-decoration-line:none;text-decoration-style:solid;text-decoration-color:#000000;letter-spacing:normal;word-spacing:normal;text-transform:none;direction:ltr;block-progression:tb;writing-mode:lr-tb;baseline-shift:baseline;text-anchor:start;white-space:normal;clip-rule:nonzero;display:inline;overflow:visible;visibility:visible;opacity:1;isolation:auto;mix-blend-mode:normal;color-interpolation:sRGB;color-interpolation-filters:linearRGB;solid-color:#000000;solid-opacity:1;fill:#f87037;fill-opacity:1;fill-rule:nonzero;stroke:none;stroke-width:2;stroke-linecap:round;stroke-linejoin:round;stroke-miterlimit:4;stroke-dasharray:none;stroke-dashoffset:4;stroke-opacity:1;color-rendering:auto;image-rendering:auto;shape-rendering:auto;text-rendering:auto;enable-background:accumulate"
           d="m -570.2101,450.45418 c -1.6058,0 -2.9272,1.32301 -2.9272,2.92905 0,1.11457 0.6481,2.07063 1.5742,2.56478 0,0.10593 0,0.68008 0.01,1.35558 l -1.3064,0 c -0.3587,-0.005 -0.6712,0.13803 -0.8705,0.35982 -0.1993,0.22179 -0.2914,0.50596 -0.2914,0.78548 0,0.27952 0.092,0.56369 0.2914,0.78548 0.1993,0.2218 0.5118,0.36489 0.8705,0.35982 l 1.3077,0 c 0,1.00986 0,2.08019 -0.019,3.24353 -0.022,1.80397 -0.063,3.64997 -0.1381,5.11105 -0.037,0.73043 -0.083,1.36643 -0.1355,1.83679 -0.025,0.22552 -0.065,0.43201 -0.095,0.57458 -0.014,0.0686 -0.025,0.11918 -0.034,0.15979 -0.4154,0.88214 -0.8782,1.37364 -1.2175,1.64635 -0.1769,0.14218 -0.3003,0.21849 -0.372,0.25694 -0.072,0.0384 -0.063,0.032 -0.063,0.032 a 0.3272613,0.3272613 0 0 0 -0.015,0.004 c -0.016,0.004 -0.031,0.0111 -0.046,0.0166 -0.5046,0.0288 -1.0334,0.006 -1.569,-0.11954 -1.5493,-0.36146 -2.3564,-1.42004 -2.7878,-2.24583 l 0.076,-0.0167 c 0.8451,-0.18571 1.1838,-1.24932 0.6014,-1.88926 l -1.904,-2.09053 c -0.2605,-0.28583 -0.6491,-0.42082 -1.0308,-0.35857 -0.4249,0.0691 -0.776,0.37163 -0.907,0.78165 l -0.8577,2.69452 c -0.2626,0.82469 0.4887,1.65104 1.3345,1.46677 l 0.4506,-0.0984 c 0.4221,1.11327 1.3952,2.93472 3.6232,4.06353 3.0023,1.52122 4.1496,1.74697 5.0771,2.12188 0.3407,0.17959 0.4868,0.30919 0.6142,0.47295 0.1287,0.16544 0.2466,0.39457 0.4711,0.72284 a 0.3272613,0.3272613 0 0 0 0.5278,0.0174 c 0.2746,-0.35096 0.4327,-0.61945 0.5765,-0.80149 0.1437,-0.18178 0.2608,-0.28861 0.535,-0.40517 0,0 0,0 0,0 0.9299,-0.37821 2.0773,-0.59899 5.0944,-2.12764 2.2279,-1.12884 3.201,-2.95026 3.6231,-4.06352 l 0.4506,0.0984 c 0.8459,0.18422 1.5978,-0.64212 1.3352,-1.46677 l 0,0 -0.8577,-2.69388 c -0.131,-0.41002 -0.4821,-0.71257 -0.907,-0.78165 -0.382,-0.0626 -0.7707,0.0724 -1.0315,0.35854 l -1.9039,2.09057 c -0.5825,0.6399 -0.2437,1.70355 0.6014,1.88921 l 0.2173,0.0473 c -0.4367,0.82184 -1.2421,1.85844 -2.7712,2.21518 -0.6551,0.15282 -1.2995,0.15727 -1.8982,0.092 -0.079,-0.0506 -0.1652,-0.10736 -0.301,-0.22241 -0.3505,-0.29689 -0.8219,-0.81742 -1.2399,-1.70577 -0.01,-0.0406 -0.02,-0.0912 -0.034,-0.15979 -0.03,-0.14257 -0.069,-0.34906 -0.095,-0.57459 -0.053,-0.47039 -0.098,-1.10639 -0.1355,-1.83682 -0.075,-1.46108 -0.117,-3.30708 -0.1387,-5.11102 -0.014,-1.16333 -0.017,-2.23354 -0.019,-3.24353 l 1.3076,0 c 0.3588,0.005 0.6712,-0.13805 0.8705,-0.35982 0.1993,-0.22179 0.2908,-0.50596 0.2908,-0.78548 0,-0.27951 -0.091,-0.56368 -0.2908,-0.78548 -0.1993,-0.22179 -0.5117,-0.36489 -0.8705,-0.35981 l -1.3064,0 c 0,-0.67531 0.01,-1.24867 0.01,-1.35493 0.9264,-0.49405 1.5748,-1.45064 1.5748,-2.56544 0,-1.60603 -1.3213,-2.92801 -2.9271,-2.92909 l 0,0 0,0 z"
           id="path25767"
           inkscape:connector-curvature="0" />
        <path
           inkscape:export-ydpi="90"
           inkscape:export-xdpi="90"
           sodipodi:nodetypes="ssssccssssscccsssssssssssssssss"
           inkscape:connector-curvature="0"
           style="color:#000000;font-style:normal;font-variant:normal;font-weight:normal;font-stretch:normal;font-size:medium;line-height:normal;font-family:sans-serif;text-indent:0;text-align:start;text-decoration:none;text-decoration-line:none;text-decoration-style:solid;text-decoration-color:#000000;letter-spacing:normal;word-spacing:normal;text-transform:none;direction:ltr;block-progression:tb;writing-mode:lr-tb;baseline-shift:baseline;text-anchor:start;white-space:normal;clip-rule:nonzero;display:inline;overflow:visible;visibility:visible;opacity:1;isolation:auto;mix-blend-mode:normal;color-interpolation:sRGB;color-interpolation-filters:linearRGB;solid-color:#000000;solid-opacity:1;fill:#f87037;fill-opacity:1;fill-rule:nonzero;stroke:none;stroke-width:5;stroke-linecap:butt;stroke-linejoin:miter;stroke-miterlimit:4;stroke-dasharray:none;stroke-dashoffset:4;stroke-opacity:1;color-rendering:auto;image-rendering:auto;shape-rendering:auto;text-rendering:auto;enable-background:accumulate"
           d="m -570.2153,482.83309 c -12.7288,0 -24.0885,1.32132 -32.4346,3.72709 -4.1731,1.20286 -7.5963,2.67173 -10.0842,4.44018 -2.4879,1.76846 -3.4224,4.00892 -4.2861,6.36534 -0.5495,1.49903 -1.0408,3.74839 -0.9916,4.98472 -0.049,0.21284 0.5879,-0.36094 0.5663,-0.13949 -0.274,2.80073 1.1537,5.62831 3.5813,8.29801 2.4276,2.66972 5.9308,5.24296 10.2434,7.52407 8.6253,4.56222 20.5018,7.93882 33.4115,7.93882 12.9092,0 24.675,-3.36913 33.2425,-7.92755 4.2837,-2.27922 7.7708,-4.85284 10.2149,-7.5173 2.4442,-2.66446 3.9131,-5.46223 3.7835,-8.24691 0,-0.044 0.6302,2.16872 0.5896,0.43316 0.1683,-0.94202 -0.759,-4.39951 -1.0171,-5.30771 -0.7003,-2.46424 -1.6614,-4.78371 -4.1426,-6.57948 -2.4813,-1.79577 -5.9203,-3.2504 -10.1173,-4.42668 -8.3941,-2.35248 -19.836,-3.56627 -32.5594,-3.56627 z m 0,9.6506 c 12.603,0 23.9267,1.00181 32.0289,2.86445 4.0511,0.93128 7.2963,2.08909 9.4365,3.35962 2.1401,1.27054 3.0371,2.51599 3.0921,3.69704 0.08,1.71052 -0.9163,3.94507 -3.0779,6.30147 -2.1615,2.35641 -5.4217,4.79284 -9.4958,6.96049 -8.1481,4.33531 -19.5387,7.61195 -31.977,7.61195 -12.4378,0 -23.9474,-3.28645 -32.1521,-7.62622 -4.1024,-2.16993 -7.3757,-4.60716 -9.5109,-6.95525 -2.1351,-2.34806 -3.0571,-4.54607 -2.893,-6.22407 0.1065,-1.0886 1.0611,-2.35052 3.2274,-3.61363 2.1663,-1.26307 5.4033,-2.43001 9.4335,-3.38291 8.0602,-1.9058 19.2915,-2.99294 31.8883,-2.99294 z"
           id="path25777" />
        <path
           inkscape:export-ydpi="90"
           inkscape:export-xdpi="90"
           sodipodi:nodetypes="sssss"
           inkscape:connector-curvature="0"
           id="path25779"
           d="m -522.2457,502.84716 c 0.4374,9.39549 -21.474,23.28653 -47.9633,23.28653 -26.4895,0 -48.8792,-13.92559 -47.9633,-23.28653 0.7016,-7.17129 21.4674,-11.71014 47.9568,-11.71014 26.4894,0 47.619,4.1751 47.9698,11.71014 z"
           style="opacity:1;fill:#313131;fill-opacity:1;stroke:none;stroke-width:7;stroke-linecap:butt;stroke-linejoin:miter;stroke-miterlimit:4;stroke-dasharray:none;stroke-dashoffset:4;stroke-opacity:1" />
      </g>
      <path
         sodipodi:nodetypes="cssscsc"
         inkscape:connector-curvature="0"
         id="path25787"
         d="m 1284.7352,-152.91082 c 0,0 3.0679,-1.32152 6.404,-1.96277 3.1382,-0.60322 6.5426,-0.53257 6.9665,-0.41143 0.8748,0.24991 -0.9302,10.92824 1.6245,17.61907 2.6241,6.87268 10.4965,14.86999 10.4965,14.86999 0,0 -14.9104,-6.19624 -20.6181,-13.87033 -4.9983,-6.72028 -4.8734,-16.11798 -4.8734,-16.24453 z"
         style="opacity:1;fill:#ffffff;fill-opacity:0.71900826;stroke:none;stroke-width:7;stroke-linecap:butt;stroke-linejoin:miter;stroke-miterlimit:4;stroke-dasharray:none;stroke-dashoffset:4;stroke-opacity:1" />
    </g>
  </g>
</svg>
